<?xml version="1.0" encoding="UTF-8" standalone="no"?>
<svg
   xmlns:dc="http://purl.org/dc/elements/1.1/"
   xmlns:cc="http://creativecommons.org/ns#"
   xmlns:rdf="http://www.w3.org/1999/02/22-rdf-syntax-ns#"
   xmlns:svg="http://www.w3.org/2000/svg"
   xmlns="http://www.w3.org/2000/svg"
   viewBox="0 0 283.95999 233.92"
   height="233.92"
   width="283.95999"
   xml:space="preserve"
   id="svg2"
   version="1.1"><metadata
     id="metadata8"><rdf:RDF><cc:Work
         rdf:about=""><dc:format>image/svg+xml</dc:format><dc:type
           rdf:resource="http://purl.org/dc/dcmitype/StillImage" /></cc:Work></rdf:RDF></metadata><defs
     id="defs6" /><g
     transform="matrix(1.3333333,0,0,-1.3333333,0,233.92)"
     id="g10"><g
       transform="scale(0.1)"
       id="g12"><path
         id="path14"
         style="fill:#231f20;fill-opacity:1;fill-rule:nonzero;stroke:none"
         d="m 1374.9,1170.91 h -21.49 c -0.01,-78.64 -31.95,-149.65 -83.71,-201.246 -51.79,-51.547 -123.12,-83.394 -202.17,-83.402 -79.03,0.008 -150.378,31.855 -202.167,83.402 -51.758,51.596 -83.683,122.606 -83.691,201.246 0.008,78.64 31.933,149.65 83.691,201.24 51.789,51.55 123.137,83.39 202.167,83.4 79.04,-0.01 150.38,-31.85 202.17,-83.4 51.76,-51.59 83.7,-122.6 83.71,-201.24 h 21.49 21.48 c 0.02,90.43 -36.86,172.48 -96.35,231.69 -59.45,59.24 -141.78,95.94 -232.5,95.93 -90.717,0.01 -173.046,-36.69 -232.495,-95.93 -59.48,-59.21 -96.363,-141.26 -96.355,-231.69 -0.008,-90.43 36.875,-172.48 96.355,-231.695 59.449,-59.242 141.778,-95.934 232.495,-95.926 90.72,-0.008 173.05,36.684 232.5,95.926 59.49,59.215 96.37,141.265 96.35,231.695 h -21.48" /><path
         id="path16"
         style="fill:#231f20;fill-opacity:1;fill-rule:nonzero;stroke:none"
         d="m 810.504,1162.3 c 0.16,-0.95 6.504,-56 38.574,-114.75 16.051,-29.36 38.656,-59.687 70.399,-84.183 31.695,-24.508 72.589,-42.957 124.023,-48.519 l 14.28,-1.551 V 1414.16 H 1032 V 927.676 h 12.89 l 1.39,12.816 c -46.842,5.125 -82.78,21.508 -111.061,43.285 -42.344,32.633 -67.356,78.013 -81.574,115.513 -7.106,18.72 -11.52,35.4 -14.141,47.3 -1.305,5.95 -2.156,10.72 -2.691,13.95 -0.262,1.6 -0.438,2.84 -0.551,3.65 l -0.114,0.88 -0.027,0.21 -25.617,-2.99 v 0.01" /><path
         id="path18"
         style="fill:#231f20;fill-opacity:1;fill-rule:nonzero;stroke:none"
         d="m 1298.16,1131.7 c -12.64,-44.59 -31.92,-78.54 -53.67,-104.67 -32.63,-39.155 -71.09,-60.819 -101.48,-72.71 -15.17,-5.949 -28.31,-9.418 -37.53,-11.394 -0.01,-0.004 -0.02,-0.008 -0.04,-0.008 v 215.092 h 205.12 v 25.79 h -205.12 v 230.34 h -25.78 V 913.512 l 14.08,1.316 c 1.15,0.141 44.2,4.18 94.49,32.449 25.11,14.141 52.03,34.399 76.06,63.243 24.04,28.82 45.12,66.22 58.68,114.15 l -24.81,7.03" /><path
         id="path20"
         style="fill:#979998;fill-opacity:1;fill-rule:nonzero;stroke:none"
         d="M 40.375,0.0117188 H 7.07813 V 305.379 H 40.375 Z m 0,395.6482812 c 4.6953,-4.711 7.0586,-10.25 7.0586,-16.648 0,-6.653 -2.3633,-12.262 -7.0586,-16.821 -4.7305,-4.601 -10.2852,-6.871 -16.6328,-6.871 -6.3984,0 -11.9531,2.27 -16.6797,6.871 C 2.36328,366.75 0,372.359 0,379.012 c 0,6.398 2.36328,11.937 7.0625,16.648 4.7266,4.711 10.2813,7.078 16.6797,7.078 6.3476,0 11.9023,-2.367 16.6328,-7.078" /><path
         id="path22"
         style="fill:#979998;fill-opacity:1;fill-rule:nonzero;stroke:none"
         d="m 140.625,196.391 c 0,-9.45 0.469,-17.641 1.473,-24.571 0.957,-6.922 2.898,-13.148 5.797,-18.711 2.933,-5.57 7.371,-9.91 13.328,-13.097 5.961,-3.192 13.781,-4.793 23.5,-4.793 9.699,0 17.539,1.601 23.515,4.793 5.957,3.187 10.395,7.527 13.313,13.097 2.898,5.563 4.84,11.789 5.812,18.711 0.973,6.93 1.457,15.121 1.457,24.571 v 108.988 h 33.282 v -112.75 c 0,-27.731 -6.028,-49.359 -18.09,-64.891 -12.067,-15.527 -31.824,-23.308 -59.289,-23.308 -27.465,0 -47.223,7.781 -59.289,23.308 -12.047,15.532 -18.09,37.16 -18.09,64.891 v 112.75 h 33.281 V 196.391" /><path
         id="path24"
         style="fill:#979998;fill-opacity:1;fill-rule:nonzero;stroke:none"
         d="m 351.965,284.16 h 0.824 c 5.281,8.34 12,14.852 20.18,19.559 8.179,4.711 17.133,7.082 26.836,7.082 11.64,0 22.265,-2.922 31.836,-8.75 9.554,-5.832 16.988,-13.731 22.254,-23.711 5.539,10.551 13.632,18.59 24.339,24.121 10.657,5.551 22.09,8.34 34.332,8.34 11.903,0 21.961,-2.242 30.137,-6.68 8.195,-4.43 14.641,-10.461 19.371,-18.07 4.711,-7.641 8.031,-16.321 9.977,-26.02 1.926,-9.722 2.914,-20.101 2.914,-31.191 v -119 h -33.281 v 113.57 c 0,8.34 -0.34,15.469 -1.051,21.442 -0.695,5.957 -2.141,11.66 -4.375,17.046 -2.215,5.411 -5.813,9.774 -10.817,13.114 -4.988,3.328 -11.5,5 -19.546,5 -9.133,0 -16.567,-1.942 -22.266,-5.832 -5.688,-3.891 -9.961,-9.078 -12.895,-15.602 -2.914,-6.519 -4.855,-13.449 -5.812,-20.808 -0.973,-7.348 -1.473,-15.461 -1.473,-24.34 V 109.84 h -33.265 v 111.09 c 0,7.468 -0.371,14.5 -1.036,21.011 -0.71,6.508 -2.234,12.68 -4.582,18.508 -2.367,5.832 -5.976,10.563 -10.82,14.141 -4.84,3.59 -11.043,5.422 -18.508,5.422 -9.168,0 -16.715,-2.09 -22.675,-6.274 -5.973,-4.129 -10.395,-9.597 -13.329,-16.398 -2.898,-6.82 -4.839,-14.008 -5.796,-21.641 -1.004,-7.64 -1.473,-15.89 -1.473,-24.758 V 109.84 h -33.281 v 195.531 h 33.281 V 284.16" /><path
         id="path26"
         style="fill:#979998;fill-opacity:1;fill-rule:nonzero;stroke:none"
         d="m 705.801,274.391 c -7.922,-3.743 -14.641,-8.942 -20.18,-15.61 -11.66,-13.582 -17.488,-29.961 -17.488,-49.09 0,-20.519 5.746,-38.062 17.277,-52.632 11.5,-14.559 27.11,-21.829 46.805,-21.829 20.515,0 36.551,7.141 48.047,21.411 11.5,14.281 17.265,31.839 17.265,52.629 0,20.242 -5.961,37.101 -17.879,50.558 -11.937,13.442 -27.871,20.184 -47.855,20.184 -9.426,0 -18.105,-1.883 -25.992,-5.621 m -36,3.109 h 0.824 c 8.066,10.809 17.895,19.07 29.539,24.762 11.676,5.679 24.293,8.527 37.879,8.527 13.863,0 26.609,-2.777 38.27,-8.34 11.64,-5.539 21.554,-13.16 29.746,-22.859 8.179,-9.719 14.48,-20.809 18.918,-33.281 4.437,-12.489 6.671,-25.528 6.671,-39.11 0,-13.879 -2.156,-27.051 -6.445,-39.527 -4.308,-12.461 -10.543,-23.5 -18.723,-33.07 -8.195,-9.582 -18.105,-16.993 -29.765,-22.262 -11.645,-5.258 -24.68,-7.91 -39.094,-7.91 -13.312,0 -25.863,2.851 -37.652,8.531 -11.805,5.668 -21.571,13.801 -29.344,24.34 h -0.824 V 0 H 636.52 v 305.398 h 33.281 V 277.5" /><path
         id="path28"
         style="fill:#373634;fill-opacity:1;fill-rule:nonzero;stroke:none"
         d="M 933.992,109.852 H 900.715 V 274.59 h -20.406 v 30.789 h 20.406 v 70.32 h 33.277 v -70.32 h 34.934 V 274.59 H 933.992 V 109.852" /><path
         id="path30"
         style="fill:#373634;fill-opacity:1;fill-rule:nonzero;stroke:none"
         d="m 1051.3,284.16 h 0.83 c 6.93,9.16 13.39,15.871 19.35,20.192 5.96,4.277 13.93,6.449 23.94,6.449 9.15,0 19.12,-3.082 29.94,-9.172 l -15.81,-30.359 -2.49,1.652 c -3.35,2.488 -6.25,4.308 -8.74,5.418 -2.5,1.101 -5.41,1.672 -8.73,1.672 -8.62,0 -15.55,-2.364 -20.81,-7.09 -5.28,-4.703 -9.14,-10.801 -11.65,-18.301 -2.49,-7.473 -4.09,-14.98 -4.79,-22.449 -0.68,-7.5 -1.04,-15.672 -1.04,-24.57 V 109.84 h -33.28 v 195.531 h 33.28 V 284.16" /><path
         id="path32"
         style="fill:#373634;fill-opacity:1;fill-rule:nonzero;stroke:none"
         d="m 1214.18,274.391 c -7.91,-3.743 -14.64,-8.942 -20.18,-15.61 -11.66,-13.582 -17.48,-29.961 -17.48,-49.09 0,-20.519 5.75,-38.062 17.27,-52.632 11.5,-14.559 27.11,-21.829 46.8,-21.829 20.52,0 36.55,7.141 48.07,21.411 11.49,14.281 17.24,31.839 17.24,52.629 0,20.242 -5.96,37.101 -17.88,50.558 -11.93,13.442 -27.87,20.184 -47.85,20.184 -9.43,0 -18.11,-1.883 -25.99,-5.621 m 123.35,-164.539 h -33.3 v 27.027 h -0.82 c -16.91,-21.617 -39.39,-32.449 -67.39,-32.449 -13.86,0 -26.64,2.699 -38.28,8.121 -11.63,5.41 -21.57,12.937 -29.73,22.679 -8.18,9.7 -14.51,20.711 -18.95,33.071 -4.44,12.34 -6.66,25.289 -6.66,38.898 0,14.153 2.16,27.449 6.46,39.949 4.3,12.454 10.53,23.5 18.71,33.071 8.18,9.57 18.1,17.051 29.75,22.441 11.66,5.43 24.68,8.129 39.11,8.129 13.33,0 25.8,-2.91 37.44,-8.738 11.66,-5.821 21.51,-13.992 29.54,-24.551 h 0.82 v 27.898 h 33.3 V 109.852" /><path
         id="path34"
         style="fill:#373634;fill-opacity:1;fill-rule:nonzero;stroke:none"
         d="m 1454.23,274.391 c -7.9,-3.743 -14.64,-8.942 -20.18,-15.61 -11.66,-13.582 -17.49,-29.961 -17.49,-49.09 0,-20.519 5.75,-38.062 17.28,-52.632 11.5,-14.559 27.11,-21.829 46.8,-21.829 20.52,0 36.54,7.141 48.05,21.411 11.5,14.281 17.26,31.839 17.26,52.629 0,20.242 -5.95,37.101 -17.89,50.558 -11.92,13.442 -27.86,20.184 -47.84,20.184 -9.42,0 -18.1,-1.883 -25.99,-5.621 m 90.06,-137.512 h -0.85 c -8.01,-10.539 -17.87,-18.559 -29.53,-24.109 -11.63,-5.559 -24.26,-8.34 -37.84,-8.34 -13.86,0 -26.64,2.699 -38.28,8.121 -11.64,5.41 -21.57,12.937 -29.73,22.679 -8.2,9.7 -14.51,20.711 -18.95,33.071 -4.44,12.34 -6.66,25.289 -6.66,38.898 0,14.153 2.14,27.449 6.47,39.949 4.29,12.454 10.52,23.5 18.7,33.071 8.18,9.57 18.11,17.051 29.73,22.441 11.68,5.43 24.7,8.129 39.13,8.129 13.33,0 25.86,-2.91 37.65,-8.738 11.79,-5.821 21.56,-13.992 29.31,-24.551 h 0.85 v 175.559 h 33.29 V 109.852 h -33.29 v 27.027" /><path
         id="path36"
         style="fill:#373634;fill-opacity:1;fill-rule:nonzero;stroke:none"
         d="m 1668.27,109.859 h -33.28 v 195.532 h 33.28 z m 0,285.801 c 4.72,-4.711 7.08,-10.25 7.08,-16.648 0,-6.653 -2.36,-12.262 -7.08,-16.821 -4.72,-4.601 -10.28,-6.871 -16.64,-6.871 -6.38,0 -11.94,2.27 -16.65,6.871 -4.7,4.559 -7.06,10.168 -7.06,16.821 0,6.398 2.36,11.937 7.06,16.648 4.71,4.711 10.27,7.078 16.65,7.078 6.36,0 11.92,-2.367 16.64,-7.078" /><path
         id="path38"
         style="fill:#373634;fill-opacity:1;fill-rule:nonzero;stroke:none"
         d="m 1766.87,281.66 h 0.82 c 14.16,19.418 32.73,29.129 55.76,29.129 13.02,0 23.91,-2.23 32.65,-6.668 8.75,-4.449 15.6,-10.441 20.58,-18.09 5.02,-7.621 8.47,-16.5 10.42,-26.621 1.94,-10.121 2.91,-21.301 2.91,-33.512 V 109.852 h -33.28 v 110.25 c 0,9.41 -0.42,17.476 -1.24,24.097 -0.83,6.672 -2.6,12.781 -5.2,18.332 -2.66,5.528 -6.8,9.828 -12.5,12.899 -5.69,3.039 -13.11,4.582 -22.24,4.582 -10.83,0 -19.56,-2.301 -26.22,-6.871 -6.66,-4.582 -11.58,-10.481 -14.77,-17.7 -3.19,-7.211 -5.26,-15.043 -6.23,-23.5 -0.99,-8.472 -1.46,-18.23 -1.46,-29.332 v -92.757 h -33.28 v 195.539 h 33.28 V 281.66" /><path
         id="path40"
         style="fill:#373634;fill-opacity:1;fill-rule:nonzero;stroke:none"
         d="m 2006.3,274.391 c -7.91,-3.743 -14.64,-8.942 -20.18,-15.61 -11.66,-13.582 -17.48,-29.961 -17.48,-49.09 0,-20.519 5.75,-38.062 17.28,-52.632 11.49,-14.559 27.1,-21.829 46.79,-21.829 20.52,0 36.54,7.141 48.07,21.411 11.49,14.281 17.26,31.839 17.26,52.629 0,20.242 -5.98,37.101 -17.91,50.558 -11.9,13.442 -27.86,20.184 -47.84,20.184 -9.43,0 -18.11,-1.883 -25.99,-5.621 m 123.35,-154.969 c 0,-20.2423 -1.12,-36.4025 -3.33,-48.4923 -2.22,-12.0391 -7.78,-23.9102 -16.65,-35.5391 C 2100.79,24 2089.72,15.3984 2076.4,9.57031 c -13.32,-5.80859 -27.46,-8.738279 -42.44,-8.738279 -27.74,0 -50.55,8.187499 -68.44,24.546869 -17.9,16.3711 -27.11,38.1406 -27.66,65.3125 h 33.29 c 0.28,-17.75 6.24,-32.0117 17.87,-42.8516 11.66,-10.8007 26.49,-16.2109 44.52,-16.2109 12.48,0 22.9,2.0899 31.2,6.25 8.33,4.1524 14.77,9.9609 19.36,17.4609 4.56,7.4805 7.75,16.1016 9.57,25.8008 1.79,9.711 2.7,20.5194 2.7,32.4494 v 23.289 h -0.84 c -7.77,-9.981 -17.68,-17.899 -29.75,-23.707 -12.05,-5.832 -24.75,-8.742 -38.06,-8.742 -13.88,0 -26.56,2.699 -38.05,8.121 -11.54,5.41 -21.45,12.898 -29.77,22.469 -8.31,9.55 -14.62,20.5 -18.92,32.859 -4.3,12.34 -6.46,25.312 -6.46,38.902 0,13.86 2.22,27.039 6.66,39.528 4.44,12.472 10.82,23.562 19.14,33.281 8.32,9.699 18.32,17.32 29.96,22.859 11.64,5.563 24.55,8.34 38.69,8.34 13.59,0 26.06,-2.91 37.43,-8.738 11.4,-5.821 21.1,-13.992 29.13,-24.551 h 0.84 v 27.898 h 33.28 V 119.422" /><path
         id="path42"
         style="fill:#d61743;fill-opacity:1;fill-rule:nonzero;stroke:none"
         d="m 1625.9,1159.27 h -39.04 C 1586.84,1016.41 1528.83,887.414 1434.8,793.688 1340.71,700.039 1211.13,642.191 1067.54,642.172 923.965,642.191 794.348,700.039 700.273,793.688 606.242,887.414 548.246,1016.41 548.23,1159.27 c 0.016,142.87 58.012,271.86 152.043,365.57 94.075,93.65 223.692,151.5 367.267,151.52 143.57,-0.02 273.17,-57.87 367.26,-151.52 94.03,-93.71 152.04,-222.7 152.06,-365.57 h 39.04 39.02 c 0.04,164.28 -66.95,313.32 -175.02,420.89 -108,107.63 -257.56,174.3 -422.36,174.28 -164.806,0.02 -314.364,-66.65 -422.368,-174.28 C 537.121,1472.59 470.117,1323.55 470.137,1159.27 470.117,994.984 537.121,845.938 645.172,738.371 753.176,630.75 902.734,564.09 1067.54,564.109 c 164.8,-0.019 314.36,66.641 422.36,174.262 108.07,107.567 175.06,256.613 175.02,420.899 h -39.02" /></g></g></svg>